<svg width="16" height="20" viewBox="0 0 16 20" fill="none" xmlns="http://www.w3.org/2000/svg">
<path d="M7.89258 19.1777C8.40039 19.1777 8.76172 18.8262 8.76172 18.3184V5.45703L8.69336 3.37695L11.6133 6.58008L13.8398 8.76758C13.9961 8.92383 14.2207 9.00195 14.4551 9.00195C14.9434 9.00195 15.2949 8.63086 15.2949 8.15234C15.2949 7.91797 15.2168 7.71289 15.0312 7.51758L8.54688 1.02344C8.36133 0.828125 8.13672 0.730469 7.89258 0.730469C7.64844 0.730469 7.42383 0.828125 7.23828 1.02344L0.763672 7.51758C0.578125 7.71289 0.490234 7.91797 0.490234 8.15234C0.490234 8.63086 0.841797 9.00195 1.33008 9.00195C1.56445 9.00195 1.79883 8.92383 1.94531 8.76758L4.17188 6.58008L7.10156 3.36719L7.02344 5.45703V18.3184C7.02344 18.8262 7.38477 19.1777 7.89258 19.1777Z" fill="#242C27"/>
</svg>
