<svg width="19" height="16" viewBox="0 0 19 16" fill="none" xmlns="http://www.w3.org/2000/svg">
<path d="M0.490234 7.94922C0.490234 8.19336 0.597656 8.41797 0.792969 8.60352L7.27734 15.0781C7.47266 15.2637 7.67773 15.3516 7.91211 15.3516C8.39062 15.3516 8.77148 15 8.77148 14.5117C8.77148 14.2773 8.68359 14.043 8.52734 13.8965L6.33984 11.6699L3.04883 8.67188L5.41211 8.81836H17.7656C18.2734 8.81836 18.625 8.45703 18.625 7.94922C18.625 7.44141 18.2734 7.08008 17.7656 7.08008H5.41211L3.05859 7.22656L6.33984 4.22852L8.52734 2.00195C8.68359 1.8457 8.77148 1.62109 8.77148 1.38672C8.77148 0.898438 8.39062 0.546875 7.91211 0.546875C7.67773 0.546875 7.47266 0.625 7.25781 0.839844L0.792969 7.29492C0.597656 7.48047 0.490234 7.70508 0.490234 7.94922Z" fill="#242C27"/>
</svg>
