<svg width="20" height="20" viewBox="0 0 20 20" fill="none" xmlns="http://www.w3.org/2000/svg">
<path d="M10.9766 17.1543C11.2207 17.1543 11.4648 17.0566 11.6309 16.8711L19.1895 9.12695C19.3555 8.96094 19.4531 8.74609 19.4531 8.50195C19.4531 7.99414 19.0723 7.60352 18.5645 7.60352C18.3203 7.60352 18.0957 7.70117 17.9297 7.85742L10.9766 14.9668L4.01367 7.85742C3.85742 7.70117 3.63281 7.60352 3.37891 7.60352C2.87109 7.60352 2.49023 7.99414 2.49023 8.50195C2.49023 8.74609 2.58789 8.96094 2.75391 9.13672L10.3125 16.8711C10.498 17.0566 10.7227 17.1543 10.9766 17.1543Z" fill="black"/>
</svg>
