<svg width="22" height="26" viewBox="0 0 22 26" fill="none" xmlns="http://www.w3.org/2000/svg">
<path fill-rule="evenodd" clip-rule="evenodd" d="M20 11.5C20 12.4762 19.6052 13.7658 18.8001 15.2667C18.012 16.7358 16.9179 18.2467 15.7352 19.6188C14.5534 20.9897 13.3267 22.1716 12.3078 22.9924C11.7954 23.4052 11.3706 23.6983 11.0569 23.877C11.0368 23.8884 11.0179 23.899 11 23.9088C10.9821 23.899 10.9632 23.8884 10.9431 23.877C10.6294 23.6983 10.2046 23.4052 9.69223 22.9924C8.67333 22.1716 7.44663 20.9897 6.26485 19.6188C5.08209 18.2467 3.98803 16.7358 3.19995 15.2667C2.39484 13.7658 2 12.4762 2 11.5C2 8.97879 2.76349 6.5883 4.21667 4.86443C5.6292 3.18878 7.80791 2 11 2C16.2046 2 20 6.60458 20 11.5ZM22 11.5C22 17.299 13 26 11 26C9 26 0 17.299 0 11.5C0 5.70101 3.5 0 11 0C17.5 0 22 5.70101 22 11.5ZM13.5 11C13.5 12.3807 12.3807 13.5 11 13.5C9.61929 13.5 8.5 12.3807 8.5 11C8.5 9.61929 9.61929 8.5 11 8.5C12.3807 8.5 13.5 9.61929 13.5 11ZM15 11C15 13.2091 13.2091 15 11 15C8.79086 15 7 13.2091 7 11C7 8.79086 8.79086 7 11 7C13.2091 7 15 8.79086 15 11Z" fill="black"/>
</svg>
