<svg width="26" height="26" viewBox="0 0 26 26" fill="none" xmlns="http://www.w3.org/2000/svg">
<path fill-rule="evenodd" clip-rule="evenodd" d="M24 13C24 19.0751 19.0751 24 13 24C6.92487 24 2 19.0751 2 13C2 6.92487 6.92487 2 13 2C19.0751 2 24 6.92487 24 13ZM26 13C26 20.1797 20.1797 26 13 26C5.8203 26 0 20.1797 0 13C0 5.8203 5.8203 0 13 0C20.1797 0 26 5.8203 26 13ZM18 14.7321C18.6188 14.3748 19 13.7145 19 13C19 12.2855 18.6188 11.6252 18 11.2679L12 7.80385C11.3812 7.44658 10.6188 7.44658 10 7.80385C9.3812 8.16111 9 8.82137 9 9.5359V16.4641C9 17.1786 9.3812 17.8389 10 18.1962C10.6188 18.5534 11.3812 18.5534 12 18.1962L18 14.7321ZM15 11.8453L17 13L15 14.1547L13 15.3094L11 16.4641V14.1547V11.8453V9.5359L13 10.6906L15 11.8453Z" fill="black"/>
</svg>
