<svg width="19" height="16" viewBox="0 0 19 16" fill="none" xmlns="http://www.w3.org/2000/svg">
<path d="M18.5098 7.94922C18.5098 8.19336 18.4023 8.41797 18.207 8.60352L11.7227 15.0781C11.5273 15.2637 11.3223 15.3516 11.0879 15.3516C10.6094 15.3516 10.2285 15 10.2285 14.5117C10.2285 14.2773 10.3164 14.043 10.4727 13.8965L12.6602 11.6699L15.9512 8.67188L13.5879 8.81836H1.23438C0.726562 8.81836 0.375 8.45703 0.375 7.94922C0.375 7.44141 0.726562 7.08008 1.23438 7.08008H13.5879L15.9414 7.22656L12.6602 4.22852L10.4727 2.00195C10.3164 1.8457 10.2285 1.62109 10.2285 1.38672C10.2285 0.898438 10.6094 0.546875 11.0879 0.546875C11.3223 0.546875 11.5273 0.625 11.7422 0.839844L18.207 7.29492C18.4023 7.48047 18.5098 7.70508 18.5098 7.94922Z" fill="#242C27"/>
</svg>
