<svg width="24" height="24" viewBox="0 0 24 24" fill="none" xmlns="http://www.w3.org/2000/svg">
<path fill-rule="evenodd" clip-rule="evenodd" d="M4 2H20C21.1046 2 22 2.89543 22 4V20C22 21.1046 21.1046 22 20 22H4C2.89543 22 2 21.1046 2 20V4C2 2.89543 2.89543 2 4 2ZM0 4C0 1.79086 1.79086 0 4 0H20C22.2091 0 24 1.79086 24 4V20C24 22.2091 22.2091 24 20 24H4C1.79086 24 0 22.2091 0 20V4ZM4.62695 13.4224C4.62695 13.8394 4.39795 14.0752 4.00146 14.0752C3.60498 14.0752 3.37256 13.8394 3.37256 13.4224V9.64551C3.37256 9.22852 3.60498 8.99268 4.00146 8.99268C4.39795 8.99268 4.62695 9.22852 4.62695 9.64551V11.1289H4.6543L6.33252 9.26953C6.51025 9.07129 6.66748 8.98926 6.87939 8.98926C7.20752 8.98926 7.4707 9.24561 7.4707 9.56689C7.4707 9.75146 7.40576 9.88818 7.23828 10.0693L6.05908 11.3135L7.32031 12.8584C7.52539 13.1113 7.61084 13.2993 7.61084 13.4736C7.61084 13.8154 7.35107 14.0786 7.00928 14.0786C6.74609 14.0786 6.56494 13.9795 6.36328 13.7231L5.08496 12.127L4.62695 12.6055V13.4224ZM12.2764 12.9336C11.979 13.6343 11.1929 14.0854 10.2461 14.0854C8.72852 14.0854 7.82275 13.1455 7.82275 11.5322C7.82275 9.92236 8.74902 8.98242 10.2051 8.98242C11.1382 8.98242 11.8423 9.36523 12.2114 10.0659C12.2935 10.2163 12.3379 10.3735 12.3379 10.5239C12.3379 10.8452 12.1191 11.0537 11.791 11.0537C11.5142 11.0537 11.3433 10.9409 11.2065 10.6675C10.9844 10.2095 10.6528 9.9873 10.2188 9.9873C9.53516 9.9873 9.10107 10.5718 9.10107 11.5288C9.10107 12.4961 9.53174 13.0806 10.2222 13.0806C10.6768 13.0806 11.0083 12.8618 11.2202 12.397C11.3501 12.127 11.5039 12.0176 11.7671 12.0176C12.1226 12.0176 12.355 12.2397 12.355 12.5713C12.355 12.6909 12.3276 12.814 12.2764 12.9336ZM13.9204 13.4873C13.8008 13.9043 13.6128 14.0752 13.2778 14.0752C12.8813 14.0752 12.6387 13.8496 12.6387 13.4771C12.6387 13.3711 12.6729 13.2173 12.7275 13.0669L13.9443 9.72412C14.1255 9.22168 14.4297 8.99268 14.9185 8.99268C15.4346 8.99268 15.7354 9.21143 15.9233 9.72412L17.1504 13.0669C17.2085 13.2275 17.2324 13.3438 17.2324 13.4736C17.2324 13.8257 16.9692 14.0752 16.6035 14.0752C16.2412 14.0752 16.0532 13.9111 15.9438 13.5078L15.7764 12.9609H14.0879L13.9204 13.4873ZM14.8979 10.1138L14.3374 12.0142H15.5029L14.9253 10.1138H14.8979ZM20.6367 14H18.4663C18.0698 14 17.8374 13.7607 17.8374 13.3438V9.64551C17.8374 9.22852 18.0698 8.99268 18.4663 8.99268C18.8628 8.99268 19.0918 9.22852 19.0918 9.64551V12.9883H20.6367C20.9717 12.9883 21.1938 13.1729 21.1938 13.4941C21.1938 13.8154 20.9751 14 20.6367 14Z" fill="black"/>
</svg>
