<svg width="26" height="26" viewBox="0 0 26 26" fill="none" xmlns="http://www.w3.org/2000/svg">
<path fill-rule="evenodd" clip-rule="evenodd" d="M24 13C24 19.0751 19.0751 24 13 24C6.92487 24 2 19.0751 2 13C2 6.92487 6.92487 2 13 2C19.0751 2 24 6.92487 24 13ZM26 13C26 20.1797 20.1797 26 13 26C5.8203 26 0 20.1797 0 13C0 5.8203 5.8203 0 13 0C20.1797 0 26 5.8203 26 13ZM14 6.5C14 5.94772 13.5523 5.5 13 5.5C12.4477 5.5 12 5.94772 12 6.5V13.5V13.8699L12.2407 14.1508L15.2407 17.6508C15.6002 18.0701 16.2315 18.1187 16.6508 17.7593C17.0701 17.3998 17.1187 16.7685 16.7593 16.3492L14 13.1301V6.5Z" fill="#0E0E0E"/>
</svg>
