<svg width="26" height="25" viewBox="0 0 26 25" fill="none" xmlns="http://www.w3.org/2000/svg">
<path fill-rule="evenodd" clip-rule="evenodd" d="M13 6.3C14.2703 6.3 15.3 5.27026 15.3 4C15.3 2.72975 14.2703 1.7 13 1.7C11.7297 1.7 10.7 2.72975 10.7 4C10.7 5.27026 11.7297 6.3 13 6.3ZM13 8C15.2091 8 17 6.20914 17 4C17 1.79086 15.2091 0 13 0C10.7909 0 9 1.79086 9 4C9 6.20914 10.7909 8 13 8ZM22 6.3C22.718 6.3 23.3 5.71797 23.3 5C23.3 4.28203 22.718 3.7 22 3.7C21.282 3.7 20.7 4.28203 20.7 5C20.7 5.71797 21.282 6.3 22 6.3ZM22 8C23.6569 8 25 6.65685 25 5C25 3.34315 23.6569 2 22 2C20.3431 2 19 3.34315 19 5C19 6.65685 20.3431 8 22 8ZM5.3 5C5.3 5.71797 4.71797 6.3 4 6.3C3.28203 6.3 2.7 5.71797 2.7 5C2.7 4.28203 3.28203 3.7 4 3.7C4.71797 3.7 5.3 4.28203 5.3 5ZM7 5C7 6.65685 5.65685 8 4 8C2.34315 8 1 6.65685 1 5C1 3.34315 2.34315 2 4 2C5.65685 2 7 3.34315 7 5ZM6 12V11.3333C6 10.8376 6.1546 10.3779 6.41823 10H2C0.895431 10 0 10.8954 0 12V16C0 19.3137 2.68629 22 6 22H6.45963C6.21936 21.3718 6.06699 20.7001 6.01758 20H6C3.79086 20 2 18.2091 2 16V12H6ZM20 22H19.5404C19.7806 21.3718 19.933 20.7001 19.9824 20H20C22.2091 20 24 18.2091 24 16V12H20V11.3333C20 10.8376 19.8454 10.3779 19.5818 10H24C25.1046 10 26 10.8954 26 12V16C26 19.3137 23.3137 22 20 22ZM9 11.4C9 11.1791 9.17908 11 9.4 11H16.6C16.8209 11 17 11.1791 17 11.4V18.6C17 20.8091 15.2091 22.6 13 22.6C10.7909 22.6 9 20.8091 9 18.6V11.4ZM7 11.4C7 10.0745 8.07452 9 9.4 9H16.6C17.9255 9 19 10.0745 19 11.4V18.6C19 21.9137 16.3137 24.6 13 24.6C9.68629 24.6 7 21.9137 7 18.6V11.4Z" fill="black"/>
</svg>
