<svg width="24" height="26" viewBox="0 0 24 26" fill="none" xmlns="http://www.w3.org/2000/svg">
<path fill-rule="evenodd" clip-rule="evenodd" d="M10.7771 0.41743C11.4974 -0.139143 12.5026 -0.139144 13.2229 0.41743L23.2229 8.1447C23.713 8.52343 24 9.10787 24 9.72727V22.7362C24 23.8408 23.1046 24.7362 22 24.7362H18.5H17.5V22.7362H18.5H22V9.72727L12 2L2 9.72727V9.74683V9.76838V9.79V9.81169V9.83346V9.85529V9.87719V9.89917V9.92121V9.94332V9.9655V9.98775V10.0101V10.0325V10.0549V10.0774V10.1V10.1227V10.1454V10.1682V10.191V10.2139V10.2369V10.2599V10.2831V10.3062V10.3295V10.3528V10.3761V10.3995V10.423V10.4466V10.4702V10.4938V10.5176V10.5414V10.5652V10.5891V10.6131V10.6371V10.6612V10.6854V10.7096V10.7338V10.7581V10.7825V10.8069V10.8314V10.856V10.8806V10.9052V10.9299V10.9547V10.9795V11.0044V11.0293V11.0543V11.0793V11.1044V11.1296V11.1548V11.18V11.2053V11.2307V11.2561V11.2815V11.307V11.3325V11.3581V11.3838V11.4095V11.4352V11.461V11.4869V11.5127V11.5387V11.5647V11.5907V11.6168V11.6429V11.669V11.6953V11.7215V11.7478V11.7742V11.8005V11.827V11.8535V11.88V11.9065V11.9331V11.9598V11.9865V12.0132V12.04V12.0668V12.0936V12.1205V12.1474V12.1744V12.2014V12.2284V12.2555V12.2827V12.3098V12.337V12.3642V12.3915V12.4188V12.4462V12.4735V12.5009V12.5284V12.5559V12.5834V12.6109V12.6385V12.6661V12.6938V12.7215V12.7492V12.7769V12.8047V12.8325V12.8604V12.8882V12.9161V12.9441V12.972V13V13.028V13.0561V13.0842V13.1123V13.1404V13.1686V13.1967V13.225V13.2532V13.2815V13.3097V13.3381V13.3664V13.3948V13.4232V13.4516V13.48V13.5085V13.537V13.5655V13.594V13.6225V13.6511V13.6797V13.7083V13.737V13.7656V13.7943V13.823V13.8517V13.8804V13.9092V13.938V13.9668V13.9956V14.0244V14.0532V14.0821V14.111V14.1399V14.1688V14.1977V14.2266V14.2556V14.2845V14.3135V14.3425V14.3715V14.4005V14.4296V14.4586V14.4877V14.5168V14.5458V14.5749V14.604V14.6331V14.6623V14.6914V14.7205V14.7497V14.7789V14.808V14.8372V14.8664V14.8956V14.9248V14.954V14.9832V15.0124V15.0416V15.0709V15.1001V15.1294V15.1586V15.1879V15.2171V15.2464V15.2756V15.3049V15.3341V15.3634V15.3927V15.422V15.4512V15.4805V15.5098V15.539V15.5683V15.5976V15.6269V15.6561V15.6854V15.7147V15.7439V15.7732V15.8025V15.8317V15.861V15.8902V15.9195V15.9487V15.9779V16.0072V16.0364V16.0656V16.0948V16.124V16.1532V16.1824V16.2116V16.2408V16.27V16.2991V16.3283V16.3574V16.3866V16.4157V16.4448V16.4739V16.503V16.5321V16.5612V16.5902V16.6193V16.6483V16.6773V16.7063V16.7353V16.7643V16.7933V16.8222V16.8512V16.8801V16.909V16.9379V16.9668V16.9956V17.0245V17.0533V17.0821V17.1109V17.1397V17.1685V17.1972V17.2259V17.2546V17.2833V17.3119V17.3406V17.3692V17.3978V17.4264V17.4549V17.4835V17.512V17.5405V17.5689V17.5974V17.6258V17.6542V17.6826V17.7109V17.7392V17.7675V17.7958V17.824V17.8522V17.8804V17.9086V17.9367V17.9648V17.9929V18.021V18.049V18.077V18.105V18.1329V18.1608V18.1887V18.2165V18.2443V18.2721V18.2999V18.3276V18.3553V18.3829V18.4105V18.4381V18.4657V18.4932V18.5207V18.5481V18.5756V18.6029V18.6303V18.6576V18.6849V18.7121V18.7393V18.7665V18.7936V18.8207V18.8477V18.8748V18.9017V18.9287V18.9556V18.9824V19.0092V19.036V19.0627V19.0894V19.1161V19.1427V19.1693V19.1958V19.2223V19.2487V19.2751V19.3014V19.3277V19.354V19.3802V19.4064V19.4325V19.4586V19.4846V19.5106V19.5366V19.5625V19.5883V19.6141V19.6399V19.6656V19.6912V19.7168V19.7424V19.7679V19.7933V19.8187V19.8441V19.8694V19.8946V19.9198V19.945V19.9701V19.9951V20.0201V20.0451V20.0699V20.0948V20.1195V20.1443V20.1689V20.1935V20.2181V20.2426V20.267V20.2914V20.3157V20.34V20.3642V20.3884V20.4125V20.4365V20.4605V20.4844V20.5083V20.5321V20.5558V20.5795V20.6031V20.6266V20.6501V20.6736V20.6969V20.7202V20.7435V20.7667V20.7898V20.8128V20.8358V20.8587V20.8816V20.9044V20.9271V20.9498V20.9724V20.9949V21.0174V21.0398V21.0621V21.0844V21.1065V21.1287V21.1507V21.1727V21.1946V21.2165V21.2382V21.2599V21.2816V21.3031V21.3246V21.346V21.3674V21.3887V21.4099V21.431V21.452V21.473V21.4939V21.5147V21.5355V21.5562V21.5768V21.5973V21.6178V21.6381V21.6584V21.6787V21.6988V21.7189V21.7389V21.7588V21.7786V21.7983V21.818V21.8376V21.8571V21.8766V21.8959V21.9152V21.9344V21.9535V21.9725V21.9914V22.0103V22.0291V22.0478V22.0664V22.0849V22.1033V22.1217V22.1399V22.1581V22.1762V22.1942V22.2122V22.23V22.2478V22.2654V22.283V22.3005V22.3179V22.3352V22.3524V22.3695V22.3866V22.4035V22.4204V22.4372V22.4538V22.4704V22.4869V22.5033V22.5196V22.5359V22.552V22.568V22.584V22.5998V22.6155V22.6312V22.6468V22.6622V22.6776V22.6929V22.708V22.7231V22.7362H6H7V24.7362H6H2C0.897878 24.7362 0 23.8451 0 22.7381V22.7231V22.708V22.6929V22.6776V22.6622V22.6468V22.6312V22.6155V22.5998V22.584V22.568V22.552V22.5359V22.5196V22.5033V22.4869V22.4704V22.4538V22.4372V22.4204V22.4035V22.3866V22.3695V22.3524V22.3352V22.3179V22.3005V22.283V22.2654V22.2478V22.23V22.2122V22.1942V22.1762V22.1581V22.1399V22.1217V22.1033V22.0849V22.0664V22.0478V22.0291V22.0103V21.9914V21.9725V21.9535V21.9344V21.9152V21.8959V21.8766V21.8571V21.8376V21.818V21.7983V21.7786V21.7588V21.7389V21.7189V21.6988V21.6787V21.6584V21.6381V21.6178V21.5973V21.5768V21.5562V21.5355V21.5147V21.4939V21.473V21.452V21.431V21.4099V21.3887V21.3674V21.346V21.3246V21.3031V21.2816V21.2599V21.2382V21.2165V21.1946V21.1727V21.1507V21.1287V21.1065V21.0844V21.0621V21.0398V21.0174V20.9949V20.9724V20.9498V20.9271V20.9044V20.8816V20.8587V20.8358V20.8128V20.7898V20.7667V20.7435V20.7202V20.6969V20.6736V20.6501V20.6266V20.6031V20.5795V20.5558V20.5321V20.5083V20.4844V20.4605V20.4365V20.4125V20.3884V20.3642V20.34V20.3157V20.2914V20.267V20.2426V20.2181V20.1935V20.1689V20.1443V20.1195V20.0948V20.0699V20.0451V20.0201V19.9951V19.9701V19.945V19.9198V19.8946V19.8694V19.8441V19.8187V19.7933V19.7679V19.7424V19.7168V19.6912V19.6656V19.6399V19.6141V19.5883V19.5625V19.5366V19.5106V19.4846V19.4586V19.4325V19.4064V19.3802V19.354V19.3277V19.3014V19.2751V19.2487V19.2223V19.1958V19.1693V19.1427V19.1161V19.0894V19.0627V19.036V19.0092V18.9824V18.9556V18.9287V18.9017V18.8748V18.8477V18.8207V18.7936V18.7665V18.7393V18.7121V18.6849V18.6576V18.6303V18.6029V18.5756V18.5481V18.5207V18.4932V18.4657V18.4381V18.4105V18.3829V18.3553V18.3276V18.2999V18.2721V18.2443V18.2165V18.1887V18.1608V18.1329V18.105V18.077V18.049V18.021V17.9929V17.9648V17.9367V17.9086V17.8804V17.8522V17.824V17.7958V17.7675V17.7392V17.7109V17.6826V17.6542V17.6258V17.5974V17.5689V17.5405V17.512V17.4835V17.4549V17.4264V17.3978V17.3692V17.3406V17.3119V17.2833V17.2546V17.2259V17.1972V17.1685V17.1397V17.1109V17.0821V17.0533V17.0245V16.9956V16.9668V16.9379V16.909V16.8801V16.8512V16.8222V16.7933V16.7643V16.7353V16.7063V16.6773V16.6483V16.6193V16.5902V16.5612V16.5321V16.503V16.4739V16.4448V16.4157V16.3866V16.3574V16.3283V16.2991V16.27V16.2408V16.2116V16.1824V16.1532V16.124V16.0948V16.0656V16.0364V16.0072V15.9779V15.9487V15.9195V15.8902V15.861V15.8317V15.8025V15.7732V15.7439V15.7147V15.6854V15.6561V15.6269V15.5976V15.5683V15.539V15.5098V15.4805V15.4512V15.422V15.3927V15.3634V15.3341V15.3049V15.2756V15.2464V15.2171V15.1879V15.1586V15.1294V15.1001V15.0709V15.0416V15.0124V14.9832V14.954V14.9248V14.8956V14.8664V14.8372V14.808V14.7789V14.7497V14.7205V14.6914V14.6623V14.6331V14.604V14.5749V14.5458V14.5168V14.4877V14.4586V14.4296V14.4005V14.3715V14.3425V14.3135V14.2845V14.2556V14.2266V14.1977V14.1688V14.1399V14.111V14.0821V14.0532V14.0244V13.9956V13.9668V13.938V13.9092V13.8804V13.8517V13.823V13.7943V13.7656V13.737V13.7083V13.6797V13.6511V13.6225V13.594V13.5655V13.537V13.5085V13.48V13.4516V13.4232V13.3948V13.3664V13.3381V13.3097V13.2815V13.2532V13.225V13.1967V13.1686V13.1404V13.1123V13.0842V13.0561V13.028V13V12.972V12.9441V12.9161V12.8882V12.8604V12.8325V12.8047V12.7769V12.7492V12.7215V12.6938V12.6661V12.6385V12.6109V12.5834V12.5559V12.5284V12.5009V12.4735V12.4462V12.4188V12.3915V12.3642V12.337V12.3098V12.2827V12.2555V12.2284V12.2014V12.1744V12.1474V12.1205V12.0936V12.0668V12.04V12.0132V11.9865V11.9598V11.9331V11.9065V11.88V11.8535V11.827V11.8005V11.7742V11.7478V11.7215V11.6953V11.669V11.6429V11.6168V11.5907V11.5647V11.5387V11.5127V11.4869V11.461V11.4352V11.4095V11.3838V11.3581V11.3325V11.307V11.2815V11.2561V11.2307V11.2053V11.18V11.1548V11.1296V11.1044V11.0793V11.0543V11.0293V11.0044V10.9795V10.9547V10.9299V10.9052V10.8806V10.856V10.8314V10.8069V10.7825V10.7581V10.7338V10.7096V10.6854V10.6612V10.6371V10.6131V10.5891V10.5652V10.5414V10.5176V10.4938V10.4702V10.4466V10.423V10.3995V10.3761V10.3528V10.3295V10.3062V10.2831V10.2599V10.2369V10.2139V10.191V10.1682V10.1454V10.1227V10.1V10.0774V10.0549V10.0325V10.0101V9.98775V9.9655V9.94332V9.92121V9.89917V9.87719V9.85529V9.83346V9.81169V9.79V9.76838V9.74683V9.72535C0 9.10387 0.288642 8.52215 0.777105 8.1447L10.7771 0.41743ZM7 8.73623C7 8.18395 6.55228 7.73623 6 7.73623C5.44772 7.73623 5 8.18395 5 8.73623V15.6182C5 16.3757 5.428 17.0683 6.10557 17.4071L8 18.3543V23.7362V24.2362C8 24.7885 8.44772 25.2362 9 25.2362C9.55228 25.2362 10 24.7885 10 24.2362V23.7362V18.3543L11.8944 17.4071C12.572 17.0683 13 16.3757 13 15.6182V8.73623C13 8.18395 12.5523 7.73623 12 7.73623C11.4477 7.73623 11 8.18395 11 8.73623V13.7362H10V8.73623C10 8.18395 9.55228 7.73623 9 7.73623C8.44772 7.73623 8 8.18395 8 8.73623V13.7362H7V8.73623ZM15.3548 7.74692C15.8457 7.67486 16.3152 7.9737 16.4578 8.44897L19.2161 17.6433C19.4955 18.5747 19.0646 19.572 18.1949 20.0069L16.5 20.8544V24.7363C16.5 25.2886 16.0523 25.7363 15.5 25.7363C14.9477 25.7363 14.5 25.2886 14.5 24.7363V20.2363V8.73632C14.5 8.24012 14.8639 7.81897 15.3548 7.74692Z" fill="black"/>
</svg>
