<svg width="15" height="30" viewBox="0 0 15 30" fill="none" xmlns="http://www.w3.org/2000/svg">
<path fill-rule="evenodd" clip-rule="evenodd" d="M2 5C3.10457 5 4 3.88071 4 2.5C4 1.11929 3.10457 0 2 0C0.895431 0 0 1.11929 0 2.5C0 3.88071 0.895431 5 2 5ZM6.56847 6C3.84254 6 1.98195 6.72962 0.93444 8.11587C-0.0928558 9.47536 -0.125114 11.1927 0.141919 12.6771C0.449108 14.3846 1.65756 15.5025 2.53789 16.3169L2.61109 16.3846C3.09183 16.83 3.46459 17.1799 3.73024 17.5404C3.97919 17.8783 4.08419 18.1617 4.08419 18.4583C4.08419 18.7453 3.97611 19.1249 3.72508 19.6526C3.54702 20.0269 3.33576 20.4012 3.09946 20.8199L3.0994 20.82L3.09933 20.8201C2.99923 20.9974 2.89463 21.1828 2.78616 21.3794C2.11386 22.5984 1.30948 24.2078 1.62627 25.9687C2.13577 28.8007 4.77256 29.6381 6.25948 29.9569C6.39391 29.9857 6.53876 30.0022 6.69324 29.9985C7.69031 29.9746 9.12029 29.6587 10.327 28.742C11.5801 27.7902 12.5159 26.2443 12.5159 23.9583C12.5159 22.0708 12.8612 20.5649 13.224 19.2096C13.2726 19.0278 13.3227 18.8454 13.373 18.6625C13.6838 17.5316 14 16.3812 14 15.25C14 13.116 13.6731 10.8302 12.5622 9.04895C11.4024 7.18915 9.46193 6 6.56847 6ZM2.11032 12.3229C1.88263 11.0573 1.99888 10.0246 2.5301 9.32163C3.04111 8.64538 4.14907 8 6.56847 8C8.82033 8 10.0957 8.87335 10.8652 10.1073C11.6838 11.4198 12 13.259 12 15.25C12 16.0901 11.7671 16.9449 11.4523 18.1003L11.4523 18.1003L11.4523 18.1003C11.4008 18.2893 11.3471 18.4862 11.2919 18.6925C10.9126 20.1101 10.5159 21.8126 10.5159 23.9583C10.5159 25.6251 9.86777 26.5793 9.11726 27.1494C8.32827 27.7487 7.34667 27.9782 6.66559 27.9985C5.20562 27.6836 3.85847 27.0809 3.59467 25.6146C3.41673 24.6255 3.8492 23.5932 4.53744 22.3454C4.62257 22.191 4.71313 22.0305 4.80564 21.8666L4.80566 21.8666L4.80583 21.8663C5.05634 21.4224 5.32112 20.9532 5.53112 20.5118C5.82122 19.902 6.08419 19.1963 6.08419 18.4583C6.08419 17.6092 5.75627 16.9185 5.34039 16.3541C4.95129 15.826 4.4436 15.3558 4.00428 14.949L3.97026 14.9174C3.00001 14.0186 2.28925 13.3175 2.11032 12.3229ZM8 3C8 4.10457 7.32843 5 6.5 5C5.67157 5 5 4.10457 5 3C5 1.89543 5.67157 1 6.5 1C7.32843 1 8 1.89543 8 3ZM10.125 6C10.7463 6 11.25 5.32843 11.25 4.5C11.25 3.67157 10.7463 3 10.125 3C9.50368 3 9 3.67157 9 4.5C9 5.32843 9.50368 6 10.125 6ZM13.5 7C13.5 7.55228 13.1642 8 12.75 8C12.3358 8 12 7.55228 12 7C12 6.44772 12.3358 6 12.75 6C13.1642 6 13.5 6.44772 13.5 7ZM14.5 10.3333C14.7761 10.3333 15 10.0349 15 9.66667C15 9.29848 14.7761 9 14.5 9C14.2239 9 14 9.29848 14 9.66667C14 10.0349 14.2239 10.3333 14.5 10.3333Z" fill="black"/>
</svg>
