<svg width="13" height="12" viewBox="0 0 13 12" fill="none" xmlns="http://www.w3.org/2000/svg">
<path fill-rule="evenodd" clip-rule="evenodd" d="M3.5 0C2.58269 0 1.71063 0.46546 1.07934 1.11353C0.44725 1.76242 0 2.65176 0 3.57972C0 4.23622 0.311746 4.94447 0.730867 5.62296C1.15876 6.31564 1.74246 7.04582 2.37568 7.76086C3.24972 8.74786 4.25462 9.74501 5.1141 10.5979C5.49278 10.9736 5.84324 11.3214 6.14184 11.6279L6.5 11.9956L6.85816 11.6279C7.15675 11.3214 7.5072 10.9736 7.88588 10.5979L7.8859 10.5979L7.88593 10.5978C8.74541 9.74498 9.75029 8.74785 10.6243 7.76086C11.2575 7.04582 11.8412 6.31564 12.2691 5.62296C12.6883 4.94447 13 4.23622 13 3.57972C13 2.65176 12.5528 1.76242 11.9207 1.11353C11.2894 0.46546 10.4173 0 9.5 0C7.78706 0 6.92442 1.06697 6.47232 1.7306C6.22204 1.45215 5.91498 1.15017 5.57384 0.878695C5.0108 0.430629 4.27342 0 3.5 0ZM1 3.57972C1 2.96783 1.30275 2.31731 1.79566 1.8113C2.28937 1.30447 2.91731 1 3.5 1C3.92658 1 4.4392 1.25375 4.95116 1.66117C5.4483 2.05679 5.86822 2.53597 6.09627 2.84811C6.1831 2.96696 6.31788 3.04151 6.4647 3.0519C6.61152 3.06229 6.75546 3.00747 6.85816 2.90204C7.03643 2.71902 7.18393 2.50503 7.33358 2.28793C7.7684 1.65712 8.22134 1 9.5 1C10.0827 1 10.7106 1.30447 11.2043 1.8113C11.6972 2.31731 12 2.96783 12 3.57972C12 3.9498 11.8117 4.4606 11.4184 5.09742C11.0338 5.72003 10.4925 6.4014 9.87568 7.09789C9.02314 8.0606 8.06277 9.01337 7.21317 9.85625C6.96409 10.1034 6.72453 10.341 6.5 10.5667C6.27547 10.341 6.03591 10.1034 5.78683 9.85625C4.93723 9.01337 3.97686 8.0606 3.12432 7.09789C2.50754 6.4014 1.96624 5.72003 1.58163 5.09742C1.18825 4.4606 1 3.9498 1 3.57972ZM5.47074 3.5026C5.37765 3.24262 5.09143 3.10733 4.83145 3.20041C4.57147 3.2935 4.43618 3.57972 4.52926 3.8397L5.84097 7.50314C6.0625 8.12185 6.9375 8.12185 7.15903 7.50314L8.47074 3.8397C8.56382 3.57972 8.42853 3.2935 8.16855 3.20041C7.90857 3.10733 7.62235 3.24262 7.52926 3.5026L6.5 6.37722L5.47074 3.5026Z" fill="#8C8C8C"/>
</svg>
