<svg width="14" height="12" viewBox="0 0 14 12" fill="none" xmlns="http://www.w3.org/2000/svg">
<path fill-rule="evenodd" clip-rule="evenodd" d="M8.38797 1.47242C8.52257 1.34056 8.74916 1.22462 9.07869 1.14087C9.40264 1.05853 9.78482 1.01758 10.1866 1.00465C10.8235 0.984151 11.4605 1.03452 11.9279 1.07587L11.826 1.47548L11.7187 1.84311C11.6003 2.24909 11.6055 2.65806 11.6341 3.01039C11.6989 3.80698 11.4083 4.29971 10.9925 4.6528C10.5474 5.03087 9.94666 5.25708 9.39007 5.43885C9.12757 5.52457 8.98427 5.80686 9.06999 6.06936C9.15572 6.33186 9.43801 6.47517 9.70051 6.38944C10.2588 6.2071 11.0307 5.93242 11.6399 5.41499C12.2785 4.87259 12.724 4.07524 12.6308 2.92935C12.6057 2.61983 12.6112 2.35464 12.6787 2.12316L12.7884 1.74737L12.7907 1.73921L12.7928 1.73096L12.9804 0.995958C13.0918 0.559114 12.7729 0.145151 12.3462 0.109039C12.2899 0.104266 12.2258 0.0984864 12.1552 0.0921075L12.1551 0.0920992C11.6845 0.0496134 10.9194 -0.0194547 10.1545 0.005168C9.71312 0.0193736 9.25226 0.0649561 8.83235 0.171683C8.41803 0.276991 7.99995 0.452653 7.68818 0.758075C7.33823 1.1009 6.89379 1.63666 6.68936 2.38607C6.48111 3.14947 6.53806 4.07505 7.09026 5.15704C7.19863 5.36938 7.43789 5.47117 7.65953 5.41426C7.62432 5.48546 7.58921 5.55708 7.55422 5.62908C6.83354 7.11189 6.1478 8.78356 5.6175 10.1875C4.88861 7.24256 3.83036 3.04633 3.48934 2.00124C3.22189 1.18163 2.59521 0.786545 1.98027 0.632161C1.38566 0.482884 0.771119 0.545185 0.378353 0.64549C0.110798 0.713819 -0.0507071 0.986107 0.0176217 1.25366C0.0859506 1.52122 0.358238 1.68272 0.625794 1.61439C0.902876 1.54363 1.34334 1.50329 1.73677 1.60206C2.10985 1.69573 2.40421 1.89937 2.53867 2.31145C2.90325 3.42872 4.15891 8.44168 4.87894 11.3686C5.04745 12.0535 5.99049 12.0803 6.22212 11.4373C6.7715 9.9121 7.58993 7.84328 8.45362 6.06621C8.88591 5.17676 9.32397 4.37202 9.73987 3.74837C10.1715 3.10121 10.5285 2.72866 10.7772 2.60163C11.0232 2.47602 11.1207 2.17483 10.9951 1.92891C10.8695 1.68299 10.5683 1.58546 10.3224 1.71107C9.82237 1.96645 9.34355 2.54029 8.9079 3.19355C8.60675 3.64512 8.30151 4.17368 8.00046 4.74549C7.9947 4.73099 7.9882 4.71663 7.98097 4.70246C7.52838 3.81565 7.5188 3.14526 7.65411 2.64925C7.79323 2.13925 8.10242 1.75216 8.38797 1.47242Z" fill="#8C8C8C"/>
</svg>
