<svg width="33" height="33" viewBox="0 0 33 33" fill="none" xmlns="http://www.w3.org/2000/svg">
<path fill-rule="evenodd" clip-rule="evenodd" d="M4.90799 0.230868C3.95251 -0.143765 2.87145 0.288204 2.4536 1.24176C1.43635 3.56322 -1.26148 10.7467 0.829545 18.0038C2.77274 24.7478 9.20347 30.025 15.2319 31.8799C15.4835 31.9573 15.7316 31.9816 15.9685 31.9614C16.0706 31.9863 16.174 31.9944 16.2753 31.9871C16.6324 32.0323 17.0115 31.978 17.3797 31.7981C19.3793 30.8216 22.3556 29.1822 25.0658 27.0023C27.7563 24.8383 30.3034 22.0474 31.2567 18.7386C33.3478 11.4816 30.6499 4.29808 29.6327 1.97663C29.2148 1.02307 28.1338 0.591098 27.1783 0.965731C24.2112 2.12907 19.4238 4.66472 16.3008 8.88176C13.2122 4.22231 8.04356 1.46028 4.90799 0.230868ZM25.0003 7.47351L18.9317 21.9165C18.9601 21.5725 18.9843 21.2273 19.0034 20.8815C19.1885 17.5381 18.9176 13.9918 17.3962 10.8074C20.1149 6.64464 24.8069 4.05582 27.8346 2.85679C28.8329 5.15964 31.2009 11.7088 29.3349 18.1849C28.5507 20.9065 26.3833 23.3759 23.8123 25.4439C21.8751 27.0019 19.776 28.2788 18.0343 29.215L26.8441 8.24826C27.0581 7.73909 26.8187 7.1529 26.3096 6.93896C25.8004 6.72502 25.2142 6.96435 25.0003 7.47351ZM4.25169 2.12192C7.59619 3.44642 12.9716 6.4668 15.4746 11.4313C16.8903 14.2393 17.188 17.491 17.0065 20.7709C16.8713 23.2124 16.4799 25.5807 16.1208 27.7532C16.079 28.0066 16.0375 28.2573 15.997 28.5052L7.08885 6.74713C6.8796 6.23602 6.29563 5.99132 5.78452 6.20058C5.27341 6.40984 5.02872 6.9938 5.23797 7.50491L14.1944 29.381C9.18645 27.3052 4.29956 22.8232 2.75136 17.45C0.88535 10.9739 3.25336 4.42478 4.25169 2.12192Z" fill="black"/>
</svg>
