<svg width="24" height="25" viewBox="0 0 24 25" fill="none" xmlns="http://www.w3.org/2000/svg">
<path fill-rule="evenodd" clip-rule="evenodd" d="M21.1962 1.84004C21.3504 1.45559 21.1637 1.01894 20.7793 0.864762C20.3948 0.710581 19.9582 0.897249 19.804 1.2817L15.9927 10.785C15.6456 10.7852 15.3263 10.7992 15.0306 10.8246C14.8735 10.5029 14.637 10.1559 14.3097 9.84103L15.7334 3.21451C15.8204 2.80954 15.5626 2.41071 15.1576 2.3237C14.7527 2.2367 14.3538 2.49446 14.2668 2.89943L12.9522 9.01853C12.5337 8.87547 12.0516 8.78996 11.5001 8.78996C10.3193 8.78996 9.48028 9.19046 8.94329 9.78556C8.65645 10.1034 8.4742 10.4567 8.36896 10.7923C8.24805 10.7875 8.12511 10.785 8.0001 10.785C3.45998 10.785 1.62487 14.7763 0.808065 16.7316C0.764296 16.8363 0.746081 16.9454 0.750573 17.0518C0.319108 17.1617 0 17.5528 0 18.0184C0 21.8743 3.12584 25.0002 6.98175 25.0002H17.0182C20.8742 25.0002 24 21.8743 24 18.0184C24 17.5528 23.681 17.1618 23.2496 17.0519C23.2542 16.943 23.2351 16.8314 23.1892 16.7246C21.9037 13.733 19.8425 11.6418 17.5243 10.9958L21.1962 1.84004ZM21.6798 17.021C20.2357 13.87 18.0168 12.285 16.0001 12.285C14.6675 12.285 13.8596 12.5087 13.1576 12.8107C13.5561 13.2024 13.8992 13.6238 14.198 14.0491C14.3369 13.9966 14.478 13.9554 14.6148 13.9226C15.0331 13.8222 15.511 13.7772 16.0001 13.7772C16.6633 13.7772 17.4281 13.929 18.1767 14.3857C18.9266 14.8432 19.6172 15.5806 20.1706 16.6846C20.2248 16.7927 20.2504 16.9078 20.2503 17.021H21.6798ZM18.6481 17.021C18.2475 16.3343 17.8082 15.918 17.3954 15.6662C16.9179 15.3748 16.4327 15.2772 16.0001 15.2772C15.6147 15.2772 15.2745 15.3116 15.0059 15.3717C15.1974 15.7272 15.364 16.0648 15.5131 16.3671L15.5132 16.3671C15.5679 16.478 15.6202 16.5841 15.6706 16.6846C15.7248 16.7927 15.7504 16.9078 15.7503 17.021H18.6481ZM14.1623 17.021C13.1464 14.9793 11.7678 12.285 8.0001 12.285C4.70064 12.285 3.18515 15.0045 2.31467 17.021H3.75008C3.7499 16.8561 3.80385 16.6901 3.91505 16.5514C3.9863 16.4626 4.06499 16.3536 4.15366 16.2308L4.15369 16.2308C4.78568 15.3554 5.92516 13.7772 8.5001 13.7772C10.1036 13.7772 11.2785 14.5195 12.0304 15.2282C12.4065 15.5826 12.6852 15.9358 12.8708 16.2015C12.9641 16.3349 13.0349 16.4478 13.0838 16.5299C13.1083 16.571 13.1273 16.6046 13.141 16.6293L13.1576 16.6596L13.1628 16.6696L13.1647 16.6732L13.1655 16.6747L13.1658 16.6753C13.166 16.6756 13.1661 16.6759 12.5001 17.0207L13.1661 16.6759C13.2234 16.7864 13.2504 16.9046 13.2503 17.021H14.1623ZM11.6133 17.021C11.4726 16.8242 11.2686 16.5714 11.0016 16.3197C10.4308 15.7817 9.6057 15.2772 8.5001 15.2772C6.76564 15.2772 6.06723 16.176 5.44075 17.021H11.6133ZM11.5001 10.29C12.5134 10.29 13.1169 10.707 13.4476 11.1126C12.8169 11.2974 12.3132 11.5388 11.8311 11.7786C11.2718 11.4436 10.6349 11.1727 9.90611 10.999C9.9466 10.9282 9.99635 10.8576 10.0569 10.7905C10.2699 10.5544 10.6809 10.29 11.5001 10.29ZM6.98175 23.5002C4.1237 23.5002 1.77651 21.3129 1.52273 18.521H22.4773C22.2235 21.3129 19.8763 23.5002 17.0182 23.5002H6.98175Z" fill="black"/>
</svg>
