<svg width="29" height="29" viewBox="0 0 29 29" fill="none" xmlns="http://www.w3.org/2000/svg">
<path d="M0.939453 27.8086C1.55469 28.4062 2.57422 28.4062 3.17188 27.8086L14.4219 16.5586L25.6719 27.8086C26.2695 28.4062 27.3066 28.4238 27.9043 27.8086C28.502 27.1934 28.502 26.1914 27.9043 25.5938L16.6543 14.3262L27.9043 3.07617C28.502 2.47852 28.5195 1.45898 27.9043 0.861328C27.2891 0.246094 26.2695 0.246094 25.6719 0.861328L14.4219 12.1113L3.17188 0.861328C2.57422 0.246094 1.53711 0.228516 0.939453 0.861328C0.341797 1.47656 0.341797 2.47852 0.939453 3.07617L12.1895 14.3262L0.939453 25.5938C0.341797 26.1914 0.324219 27.2109 0.939453 27.8086Z" fill="black"/>
</svg>
