<svg width="36" height="31" viewBox="0 0 36 31" fill="none" xmlns="http://www.w3.org/2000/svg">
<path d="M1.80078 2.77539H34.5488C35.2871 2.77539 35.9023 2.19531 35.9023 1.43945C35.9023 0.701172 35.2871 0.121094 34.5488 0.121094H1.80078C1.0625 0.121094 0.482422 0.701172 0.482422 1.43945C0.482422 2.19531 1.0625 2.77539 1.80078 2.77539ZM1.80078 11.9863H34.5488C35.2871 11.9863 35.9023 11.4062 35.9023 10.6504C35.9023 9.91211 35.2871 9.33203 34.5488 9.33203H1.80078C1.0625 9.33203 0.482422 9.91211 0.482422 10.6504C0.482422 11.4062 1.0625 11.9863 1.80078 11.9863ZM1.80078 21.1973H34.5488C35.2871 21.1973 35.9023 20.5996 35.9023 19.8613C35.9023 19.123 35.2871 18.543 34.5488 18.543H1.80078C1.0625 18.543 0.482422 19.123 0.482422 19.8613C0.482422 20.5996 1.0625 21.1973 1.80078 21.1973ZM1.80078 30.3906H34.5488C35.2871 30.3906 35.9023 29.8105 35.9023 29.0723C35.9023 28.334 35.2871 27.7363 34.5488 27.7363H1.80078C1.0625 27.7363 0.482422 28.334 0.482422 29.0723C0.482422 29.8105 1.0625 30.3906 1.80078 30.3906Z" fill="black"/>
</svg>
